<?xml version="1.0" encoding="UTF-8" standalone="no"?>
<!-- Created with Inkscape (http://www.inkscape.org/) -->

<svg
   xmlns:dc="http://purl.org/dc/elements/1.1/"
   xmlns:cc="http://creativecommons.org/ns#"
   xmlns:rdf="http://www.w3.org/1999/02/22-rdf-syntax-ns#"
   xmlns:svg="http://www.w3.org/2000/svg"
   xmlns="http://www.w3.org/2000/svg"
   xmlns:xlink="http://www.w3.org/1999/xlink"
   xmlns:sodipodi="http://sodipodi.sourceforge.net/DTD/sodipodi-0.dtd"
   xmlns:inkscape="http://www.inkscape.org/namespaces/inkscape"
   width="428.38202"
   height="653.40057"
   id="svg3089"
   version="1.1"
   inkscape:version="0.48.4 r9939"
   sodipodi:docname="logo_pypy.svg"
   inkscape:export-filename="/home/humitos/Source/argentinaenpython.com.ar/web/files/material-de-difusion/logo_pypy_1024.png"
   inkscape:export-xdpi="215.14"
   inkscape:export-ydpi="215.14">
  <defs
     id="defs3091">
    <linearGradient
       inkscape:collect="always"
       xlink:href="#linearGradient5723-5-7-4-0-1-9-5-0-7"
       id="linearGradient3561"
       gradientUnits="userSpaceOnUse"
       gradientTransform="translate(1455.7174,2414.4801)"
       x1="-1182.4948"
       y1="-1109.9047"
       x2="-1084.902"
       y2="-1104.9548" />
    <linearGradient
       inkscape:collect="always"
       id="linearGradient5723-5-7-4-0-1-9-5-0-7">
      <stop
         style="stop-color:#cccccc;stop-opacity:1;"
         offset="0"
         id="stop5725-0-8-6-5-1-4-1-8-7" />
      <stop
         style="stop-color:#cccccc;stop-opacity:0;"
         offset="1"
         id="stop5727-0-8-2-8-7-4-4-2-9" />
    </linearGradient>
    <linearGradient
       inkscape:collect="always"
       xlink:href="#linearGradient4671-4-1-1-4-0-7-1-4-3-4-8"
       id="linearGradient3563"
       gradientUnits="userSpaceOnUse"
       gradientTransform="translate(1455.7174,2414.4801)"
       x1="-1212.9004"
       y1="-1161.2823"
       x2="-1199.0676"
       y2="-1155.6255" />
    <linearGradient
       id="linearGradient4671-4-1-1-4-0-7-1-4-3-4-8">
      <stop
         style="stop-color:#ffd43b;stop-opacity:1;"
         offset="0"
         id="stop4673-5-7-7-5-0-5-0-39-0-8-9" />
      <stop
         style="stop-color:#ffe873;stop-opacity:1"
         offset="1"
         id="stop4675-8-7-3-6-1-7-0-7-5-2-7" />
    </linearGradient>
    <linearGradient
       inkscape:collect="always"
       xlink:href="#linearGradient5398-2-9-8-1-9-4-2-5"
       id="linearGradient3565"
       gradientUnits="userSpaceOnUse"
       gradientTransform="translate(-504.58369,285.2225)"
       x1="-1521.705"
       y1="-650.88257"
       x2="-1402.951"
       y2="-577.88257" />
    <linearGradient
       id="linearGradient5398-2-9-8-1-9-4-2-5">
      <stop
         style="stop-color:#3b4145;stop-opacity:1;"
         offset="0"
         id="stop5400-36-9-7-0-7-5-9-9" />
      <stop
         id="stop5406-0-1-6-9-6-0-2-7"
         offset="1"
         style="stop-color:#3f212b;stop-opacity:0.83846152;" />
    </linearGradient>
    <linearGradient
       inkscape:collect="always"
       xlink:href="#linearGradient4689-6-7-9-6-61-0-36-0-2-3-5-7-1"
       id="linearGradient3567"
       gradientUnits="userSpaceOnUse"
       gradientTransform="matrix(0.47218582,0,0,0.47674449,337.34019,844.28173)"
       x1="26.648937"
       y1="20.603781"
       x2="135.66525"
       y2="114.39767" />
    <linearGradient
       id="linearGradient4689-6-7-9-6-61-0-36-0-2-3-5-7-1">
      <stop
         style="stop-color:#5a9fd4;stop-opacity:1;"
         offset="0"
         id="stop4691-38-3-9-3-89-6-4-8-3-9-6-4-4" />
      <stop
         style="stop-color:#306998;stop-opacity:1;"
         offset="1"
         id="stop4693-4-2-2-6-4-0-4-6-3-9-2-4-1" />
    </linearGradient>
    <linearGradient
       inkscape:collect="always"
       xlink:href="#linearGradient4671-4-9-3-1-7-2-3-3-2-9-5"
       id="linearGradient3569"
       gradientUnits="userSpaceOnUse"
       gradientTransform="matrix(0.81848518,0,0,0.81848518,518.09971,1365.712)"
       x1="-161.78539"
       y1="-519.71393"
       x2="-186.14603"
       y2="-560.01904" />
    <linearGradient
       id="linearGradient4671-4-9-3-1-7-2-3-3-2-9-5">
      <stop
         style="stop-color:#ffd43b;stop-opacity:1;"
         offset="0"
         id="stop4673-5-8-0-7-3-0-8-7-7-2-1" />
      <stop
         style="stop-color:#ffe873;stop-opacity:1"
         offset="1"
         id="stop4675-8-0-04-1-9-1-3-1-1-0-4" />
    </linearGradient>
    <linearGradient
       inkscape:collect="always"
       xlink:href="#linearGradient5723-5-7-4-0-1-9-5-0-7"
       id="linearGradient3178"
       gradientUnits="userSpaceOnUse"
       gradientTransform="translate(1455.7174,2414.4801)"
       x1="-1182.4948"
       y1="-1109.9047"
       x2="-1084.902"
       y2="-1104.9548" />
    <linearGradient
       inkscape:collect="always"
       xlink:href="#linearGradient4671-4-1-1-4-0-7-1-4-3-4-8"
       id="linearGradient3180"
       gradientUnits="userSpaceOnUse"
       gradientTransform="translate(1455.7174,2414.4801)"
       x1="-1212.9004"
       y1="-1161.2823"
       x2="-1199.0676"
       y2="-1155.6255" />
    <linearGradient
       inkscape:collect="always"
       xlink:href="#linearGradient5398-2-9-8-1-9-4-2-5"
       id="linearGradient3182"
       gradientUnits="userSpaceOnUse"
       gradientTransform="translate(-504.58369,285.2225)"
       x1="-1521.705"
       y1="-650.88257"
       x2="-1402.951"
       y2="-577.88257" />
    <linearGradient
       inkscape:collect="always"
       xlink:href="#linearGradient4689-6-7-9-6-61-0-36-0-2-3-5-7-1"
       id="linearGradient3184"
       gradientUnits="userSpaceOnUse"
       gradientTransform="matrix(0.47218582,0,0,0.47674449,337.34019,844.28173)"
       x1="26.648937"
       y1="20.603781"
       x2="135.66525"
       y2="114.39767" />
    <linearGradient
       inkscape:collect="always"
       xlink:href="#linearGradient4671-4-9-3-1-7-2-3-3-2-9-5"
       id="linearGradient3186"
       gradientUnits="userSpaceOnUse"
       gradientTransform="matrix(0.81848518,0,0,0.81848518,518.09971,1365.712)"
       x1="-161.78539"
       y1="-519.71393"
       x2="-186.14603"
       y2="-560.01904" />
  </defs>
  <sodipodi:namedview
     id="base"
     pagecolor="#ffffff"
     bordercolor="#666666"
     borderopacity="1.0"
     inkscape:pageopacity="0.0"
     inkscape:pageshadow="2"
     inkscape:zoom="0.7"
     inkscape:cx="149.41862"
     inkscape:cy="315.8261"
     inkscape:document-units="px"
     inkscape:current-layer="g3549"
     showgrid="false"
     inkscape:window-width="1366"
     inkscape:window-height="719"
     inkscape:window-x="0"
     inkscape:window-y="25"
     inkscape:window-maximized="1"
     fit-margin-top="25"
     fit-margin-left="25"
     fit-margin-right="25"
     fit-margin-bottom="25" />
  <metadata
     id="metadata3094">
    <rdf:RDF>
      <cc:Work
         rdf:about="">
        <dc:format>image/svg+xml</dc:format>
        <dc:type
           rdf:resource="http://purl.org/dc/dcmitype/StillImage" />
        <dc:title></dc:title>
      </cc:Work>
    </rdf:RDF>
  </metadata>
  <g
     inkscape:label="Capa 1"
     inkscape:groupmode="layer"
     id="layer1"
     transform="translate(-157.85623,-199.48079)">
    <g
       id="g3549"
       transform="matrix(5.1290316,0,0,5.1290316,-1571.0959,-4075.2911)">
      <g
         id="g3166"
         transform="translate(-4.6839513,3.8083401)">
        <g
           transform="matrix(0.43847517,0.14797551,-0.14797551,0.43847517,425.82541,251.70267)"
           id="g6245-72-6-1-3">
          <path
             sodipodi:nodetypes="ccccc"
             inkscape:connector-curvature="0"
             id="path5703-2-8-9-4-6-46-1-1-2"
             d="m 331.9245,1349.7598 c -22.5753,-37.0099 -42.2703,-75.2907 -80.084,-105.5772 l -9.0235,4.2657 c 27.3278,17.9617 53.8103,57.5047 80.084,102.3779 z"
             style="fill:url(#linearGradient3178);fill-opacity:1;stroke:none" />
          <path
             sodipodi:nodetypes="ccccc"
             inkscape:connector-curvature="0"
             id="path5703-3-5-1-4-2-7-0-3-8-0"
             d="m 267.9635,1258.5058 c -4.3656,-4.2057 -11.1865,-10.3694 -16.123,-14.3232 l -9.0235,4.2657 c 4.8412,3.182 12.0484,9.3034 16.84,13.7493 0.5012,0.294 8.3065,-3.6918 8.3065,-3.6918 z"
             style="fill:url(#linearGradient3180);fill-opacity:1;stroke:none" />
        </g>
        <g
           id="g6045-3-9-5-4-2-1-3"
           transform="matrix(0.46277125,0,0,0.46277125,1298.88,1072.5588)">
          <g
             id="g6041-8-0-6-9-4-8-7" />
          <path
             sodipodi:nodetypes="ccccc"
             inkscape:connector-curvature="0"
             id="path3189-7-5-2-5-2-7-9-0-9-9-2-95-3-4-2"
             d="m -1948.0541,-445.14282 c 17.4365,82.2879 -3.2528,134.07492 -25.0631,184.96553 l -65.164,0 c 16.8637,-61.65521 14.8775,-123.31033 -3.0074,-184.96553 z"
             style="fill:url(#linearGradient3182);fill-opacity:1;stroke:none" />
        </g>
        <path
           inkscape:connector-curvature="0"
           style="fill:url(#linearGradient3184);fill-opacity:1;stroke:none"
           d="m 397.44404,852.68242 c -3.84739,0.0176 -7.52165,0.34606 -10.75457,0.91809 -9.52374,1.68259 -11.25293,5.20428 -11.25293,11.69885 l 0,8.57742 22.50586,0 0,4.28193 -22.50586,0 -13.14303,0 c -6.54081,0 -12.2682,3.93148 -14.05968,11.41037 -2.06632,8.57256 -2.15805,13.92206 0,22.87316 1.5998,6.66289 5.42034,11.41037 11.96115,11.41037 l 1.19016,0 0,-10.2825 c 0,-17.45485 9.28245,-13.98046 25.30433,-13.98064 l 22.47967,-2.4e-4 c 6.2575,-4e-5 11.25297,-5.15226 11.25297,-11.4366 l 0,-22.85327 c 0,-6.09918 -5.14541,-10.68089 -11.25297,-11.69885 -3.86618,-0.64358 -7.87767,-0.93596 -11.7251,-0.91809 z m -12.17098,6.89871 c 2.32464,0 4.22307,1.92939 4.22307,4.30178 0,2.36393 -1.89843,4.27559 -4.22307,4.27559 -2.3331,0 -4.22315,-1.91166 -4.22315,-4.27559 0,-2.37239 1.89005,-4.30178 4.22315,-4.30178 z"
           id="path1948-4-4-4-6-3-6-2-5-7-4-6-5"
           sodipodi:nodetypes="scsccccsccscssssscssssss" />
        <path
           style="color:#000000;fill:#ffffff;fill-opacity:1;fill-rule:nonzero;stroke:none;stroke-width:1.5;marker:none;visibility:visible;display:inline;overflow:visible;enable-background:accumulate"
           d="m 382.55414,930.82671 c -2.3331,0 -4.22278,1.93716 -4.22278,4.3096 0,2.36388 1.88968,4.26615 4.22278,4.26615 2.32464,0 4.22279,-1.90227 4.22279,-4.26615 0,-2.37239 -1.89815,-4.3096 -4.22279,-4.3096 z"
           id="rect5681-0-0-7-6-0-1-4-4-2-1"
           inkscape:connector-curvature="0"
           sodipodi:nodetypes="sssss" />
        <path
           inkscape:connector-curvature="0"
           style="fill:url(#linearGradient3186);fill-opacity:1;stroke:none"
           d="m 373.24504,941.92887 c 2.66621,-0.0125 5.21233,-0.23981 7.4527,-0.63622 6.59986,-1.16595 7.79811,-3.60642 7.79811,-8.1071 l 0,-5.94393 -15.59613,0 0,-1.9814 15.59613,0 10.3906,0 c 4.53266,0 8.50162,-2.72434 9.7431,-7.90705 1.4319,-5.94069 1.49544,-9.64776 0,-15.85075 -0.17419,-0.72548 -0.38642,-1.26063 -0.63793,-1.91295 0,0 -8.43475,0.01 -8.47566,0 l 0,1.13142 c 0,12.09592 -7.71541,9.68849 -18.81822,9.68849 l -15.57799,0 c -4.33631,0 -7.79802,3.57042 -7.79802,7.92533 l 0,14.85084 c 0,4.22667 3.56565,7.4017 7.79802,8.1071 2.67921,0.44597 5.45912,0.64862 8.12529,0.63622 z m 8.43433,-4.78066 c -1.61109,0 -2.92661,-1.33704 -2.92661,-2.98108 0,-1.63816 1.31552,-2.96289 2.92661,-2.96289 1.61669,0 2.92647,1.32473 2.92647,2.96289 0,1.64404 -1.30978,2.98108 -2.92647,2.98108 z"
           id="path1948-4-4-6-1-4-5-3-4-9-38-0-6-2"
           sodipodi:nodetypes="scsccccsccccssssscssssss" />
        <path
           style="color:#000000;fill:#ffffff;fill-opacity:1;fill-rule:nonzero;stroke:none;stroke-width:1.5;marker:none;visibility:visible;display:inline;overflow:visible;enable-background:accumulate"
           d="m 385.27006,859.59113 c -2.33311,0 -4.22279,1.93716 -4.22279,4.3096 0,2.36388 1.88968,4.26615 4.22279,4.26615 2.32464,0 4.22278,-1.90227 4.22278,-4.26615 0,-2.3724 -1.89814,-4.3096 -4.22278,-4.3096 z"
           id="rect5681-8-3-9-6-9-2-9-4-2"
           inkscape:connector-curvature="0"
           sodipodi:nodetypes="sssss" />
      </g>
    </g>
  </g>
</svg>
