<?xml version="1.0" encoding="UTF-8" standalone="no"?>
<!-- Created with Inkscape (http://www.inkscape.org/) -->

<svg
   xmlns:dc="http://purl.org/dc/elements/1.1/"
   xmlns:cc="http://creativecommons.org/ns#"
   xmlns:rdf="http://www.w3.org/1999/02/22-rdf-syntax-ns#"
   xmlns:svg="http://www.w3.org/2000/svg"
   xmlns="http://www.w3.org/2000/svg"
   xmlns:xlink="http://www.w3.org/1999/xlink"
   xmlns:sodipodi="http://sodipodi.sourceforge.net/DTD/sodipodi-0.dtd"
   xmlns:inkscape="http://www.inkscape.org/namespaces/inkscape"
   width="255.98106"
   height="244.38332"
   id="svg3394"
   version="1.1"
   inkscape:version="0.48.4 r9939"
   sodipodi:docname="logo_oficial.svg">
  <defs
     id="defs3396">
    <clipPath
       clipPathUnits="userSpaceOnUse"
       id="clipPath36">
      <path
         inkscape:connector-curvature="0"
         d="m 566.074,2022.59 c 23.516,0 42.61,-19.09 42.61,-42.65 0,-23.51 -19.094,-42.57 -42.61,-42.57 -23.562,0 -42.59,19.06 -42.59,42.57 0,23.56 19.028,42.65 42.59,42.65 z m 123.067,68.69 c -38.887,-0.17 -76.211,-3.39 -108.907,-9.09 -96.242,-16.73 -113.632,-51.78 -113.632,-116.33 l 0,-85.23 227.429,0 0,-28.48 -227.429,0 -85.34,0 c -66.117,0 -123.891,-39.13 -141.992,-113.46 -7.454,-30.4 -12.415,-56.68 -14.668,-82 l 102,0 c 0.996,47.55 40.117,85.86 88.234,85.86 48.113,0 87.359,-38.31 88.348,-85.86 l 365.039,0 c 31.933,20.18 53.015,55.83 53.015,96.19 l 0,212.98 c 0,60.64 -51.941,106.23 -113.672,116.33 -39.07,6.38 -79.531,9.26 -118.425,9.09 l 0,0 z"
         id="path38" />
    </clipPath>
    <linearGradient
       x1="0"
       y1="0"
       x2="1"
       y2="0"
       gradientUnits="userSpaceOnUse"
       gradientTransform="matrix(-69.8108,0.555006,-0.555006,-69.8108,92.2197,187.032)"
       spreadMethod="pad"
       id="linearGradient40">
      <stop
         style="stop-opacity:1;stop-color:#3e6a9a"
         offset="0"
         id="stop42" />
      <stop
         style="stop-opacity:1;stop-color:#437ab7"
         offset="1"
         id="stop44" />
    </linearGradient>
    <clipPath
       clipPathUnits="userSpaceOnUse"
       id="clipPath52">
      <path
         inkscape:connector-curvature="0"
         d="m 949.797,1852.15 0,-99.27 c 0,-36.73 -15.219,-70.69 -39.238,-96.19 l 42.117,0 c 1.008,48.15 40.625,86.97 89.364,86.97 48.72,0 88.33,-38.82 89.33,-86.97 l 32.47,0 c -2.68,25.52 -7.7,52.52 -15.17,82 -16.34,64.71 -47.47,113.46 -113.65,113.46 l -85.223,0 0,0 z"
         id="path54" />
    </clipPath>
    <linearGradient
       x1="0"
       y1="0"
       x2="1"
       y2="0"
       gradientUnits="userSpaceOnUse"
       gradientTransform="matrix(-138.2,-1.208e-5,1.208e-5,-138.2,116.611,175.442)"
       spreadMethod="pad"
       id="linearGradient56">
      <stop
         style="stop-opacity:1;stop-color:#fbbf2e"
         offset="0"
         id="stop58" />
      <stop
         style="stop-opacity:1;stop-color:#f9e95c"
         offset="1"
         id="stop60" />
    </linearGradient>
    <linearGradient
       inkscape:collect="always"
       xlink:href="#linearGradient40"
       id="linearGradient3120"
       gradientUnits="userSpaceOnUse"
       gradientTransform="matrix(-69.8108,0.555006,-0.555006,-69.8108,92.2197,187.032)"
       spreadMethod="pad"
       x1="0"
       y1="0"
       x2="1"
       y2="0" />
    <linearGradient
       inkscape:collect="always"
       xlink:href="#linearGradient56"
       id="linearGradient3122"
       gradientUnits="userSpaceOnUse"
       gradientTransform="matrix(-138.2,-1.208e-5,1.208e-5,-138.2,116.611,175.442)"
       spreadMethod="pad"
       x1="0"
       y1="0"
       x2="1"
       y2="0" />
  </defs>
  <sodipodi:namedview
     id="base"
     pagecolor="#ffffff"
     bordercolor="#666666"
     borderopacity="1.0"
     inkscape:pageopacity="0.0"
     inkscape:pageshadow="2"
     inkscape:zoom="0.98994949"
     inkscape:cx="9.3899478"
     inkscape:cy="132.4073"
     inkscape:document-units="px"
     inkscape:current-layer="layer1"
     showgrid="false"
     fit-margin-top="0"
     fit-margin-left="0"
     fit-margin-right="0"
     fit-margin-bottom="0"
     inkscape:window-width="1366"
     inkscape:window-height="719"
     inkscape:window-x="0"
     inkscape:window-y="25"
     inkscape:window-maximized="1"
     showguides="true"
     inkscape:guide-bbox="true">
    <sodipodi:guide
       orientation="0,1"
       position="102.14286,-0.3572093"
       id="guide3027" />
  </sodipodi:namedview>
  <metadata
     id="metadata3399">
    <rdf:RDF>
      <cc:Work
         rdf:about="">
        <dc:format>image/svg+xml</dc:format>
        <dc:type
           rdf:resource="http://purl.org/dc/dcmitype/StillImage" />
        <dc:title />
      </cc:Work>
    </rdf:RDF>
  </metadata>
  <g
     inkscape:label="Capa 1"
     inkscape:groupmode="layer"
     id="layer1"
     transform="translate(-258.37588,-373.30163)">
    <g
       id="g3066">
      <path
         inkscape:export-ydpi="152.24001"
         inkscape:export-xdpi="152.24001"
         inkscape:export-filename="/home/humitos/Dropbox/argenpython/grafica/url.png"
         d="m 331.06575,585.42955 c 0,4.44773 -1.04022,8.13985 -3.13654,11.07196 -2.33533,3.32423 -5.57189,5.03371 -9.71275,5.13064 -3.11936,0.0947 -6.32904,-0.88338 -9.6352,-2.92991 l 0,18.98271 -5.35336,-1.91215 0,-42.13557 c 0.87853,-1.07724 2.0093,-2.00468 3.38019,-2.79112 3.1839,-1.85488 7.05358,-2.80875 11.60419,-2.85942 l 0.0756,0.0771 c 4.16245,-0.0551 7.37058,1.65881 9.62243,5.12403 2.09962,3.18544 3.15548,7.26088 3.15548,12.24172 z m -6.15016,-0.35908 c 0,-8.75227 -2.49372,-13.24406 -7.48051,-13.49079 -1.98507,-0.0947 -3.92123,0.2203 -5.80584,0.95608 -1.50328,0.53751 -2.51708,1.07063 -3.04798,1.61255 l 0,20.88604 c 3.18831,2.00027 6.02371,2.92991 8.49078,2.78452 5.22602,-0.34146 7.84355,-4.59092 7.84355,-12.7484 l 0,0"
         style="fill:#3e6da1;fill-opacity:1;fill-rule:nonzero;stroke:none"
         id="path20"
         inkscape:connector-curvature="0" />
      <path
         inkscape:export-ydpi="152.24001"
         inkscape:export-xdpi="152.24001"
         inkscape:export-filename="/home/humitos/Dropbox/argenpython/grafica/url.png"
         d="m 363.75976,597.89156 c 0,5.96556 -0.59391,10.09166 -1.78834,12.39152 -1.20215,2.29546 -3.48417,4.12831 -6.85819,5.48972 -2.7323,1.07724 -5.68556,1.66763 -8.85823,1.76676 l -0.88205,-3.3727 c 3.22267,-0.44279 5.49346,-0.88338 6.8084,-1.31735 2.59439,-0.88338 4.37569,-2.23158 5.35511,-4.02918 0.77874,-1.47376 1.16602,-4.28251 1.16602,-8.43504 l 0,-1.39006 c -3.65996,1.66102 -7.49087,2.48712 -11.49933,2.48712 -2.63317,0 -4.95837,-0.8261 -6.95974,-2.48712 -2.24788,-1.81081 -3.37071,-4.10847 -3.37071,-6.89078 l 0,-22.28271 5.35071,-1.83505 0,22.43031 c 0,2.39459 0.77015,4.24285 2.31485,5.53598 1.54888,1.29753 3.54959,1.91655 5.99683,1.86589 2.45517,-0.0485 5.08394,-1.00014 7.8722,-2.85501 l 0,-26.16649 5.35247,0 0,29.09419"
         style="fill:#3e6da1;fill-opacity:1;fill-rule:nonzero;stroke:none"
         id="path22"
         inkscape:connector-curvature="0" />
      <path
         inkscape:export-ydpi="152.24001"
         inkscape:export-xdpi="152.24001"
         inkscape:export-filename="/home/humitos/Dropbox/argenpython/grafica/url.png"
         d="m 384.6403,601.33696 c -0.63423,0.0529 -1.21933,0.0771 -1.75552,0.0771 -3.03168,0 -5.38684,-0.72256 -7.07187,-2.16769 -1.67974,-1.44953 -2.52302,-3.4476 -2.52302,-5.99199 l 0,-21.09092 -3.66569,0 0,-3.36609 3.66569,0 0,-8.94612 5.34388,-1.90554 0,10.85166 6.00653,0 0,3.36609 -6.00653,0 0,20.94112 c 0,2.01128 0.53774,3.43218 1.61343,4.26709 0.92347,0.68291 2.39063,1.07944 4.3931,1.17417 l 0,2.79112"
         style="fill:#3e6da1;fill-opacity:1;fill-rule:nonzero;stroke:none"
         id="path24"
         inkscape:connector-curvature="0" />
      <path
         inkscape:export-ydpi="152.24001"
         inkscape:export-xdpi="152.24001"
         inkscape:export-filename="/home/humitos/Dropbox/argenpython/grafica/url.png"
         d="m 417.03295,600.89637 -5.35248,0 0,-20.66796 c 0,-2.1016 -0.48883,-3.91021 -1.46561,-5.42142 -1.13319,-1.71389 -2.69596,-2.56643 -4.71297,-2.56643 -2.45076,0 -5.52122,1.29533 -9.1999,3.88599 l 0,24.76982 -5.34719,0 0,-49.39866 5.34719,-1.68525 0,22.4986 c 3.41719,-2.48932 7.1536,-3.73839 11.20656,-3.73839 2.8354,0 5.13306,0.95608 6.88594,2.86162 1.75971,1.90113 2.63846,4.2737 2.63846,7.11108 l 0,22.351"
         style="fill:#3e6da1;fill-opacity:1;fill-rule:nonzero;stroke:none"
         id="path26"
         inkscape:connector-curvature="0" />
      <path
         inkscape:export-ydpi="152.24001"
         inkscape:export-xdpi="152.24001"
         inkscape:export-filename="/home/humitos/Dropbox/argenpython/grafica/url.png"
         d="m 451.3221,584.25979 c 0,4.78698 -1.21932,8.7743 -3.65886,11.95314 -2.68758,3.55774 -6.39799,5.34873 -11.13518,5.34873 -4.69512,0 -8.35134,-1.79099 -10.99156,-5.34873 -2.39217,-3.17884 -3.58572,-7.16616 -3.58572,-11.95314 0,-4.4962 1.29511,-8.28084 3.87827,-11.36055 2.73914,-3.26916 6.32926,-4.91255 10.7695,-4.91255 4.44465,0 8.05614,1.64339 10.84528,4.91255 2.58757,3.07971 3.87827,6.86435 3.87827,11.36055 l 0,0 z m -5.85585,-0.0352 c 0,-3.36168 -0.63686,-6.13738 -1.91038,-8.33591 -1.50857,-2.67437 -3.85514,-4.08865 -7.02781,-4.23625 -5.8629,0.34146 -8.79104,4.54907 -8.79104,12.60741 0,3.69873 0.60492,6.78505 1.83548,9.26335 1.57202,3.15681 3.92123,4.71428 7.06042,4.65701 5.88867,-0.0441 8.83333,-4.69226 8.83333,-13.95561"
         style="fill:#3e6da1;fill-opacity:1;fill-rule:nonzero;stroke:none"
         id="path28"
         inkscape:connector-curvature="0" />
      <path
         inkscape:export-ydpi="152.24001"
         inkscape:export-xdpi="152.24001"
         inkscape:export-filename="/home/humitos/Dropbox/argenpython/grafica/url.png"
         d="m 481.9958,600.89637 -5.35534,0 0,-21.83772 c 0,-2.39679 -0.71596,-4.26268 -2.15448,-5.61308 -1.44512,-1.33938 -3.36388,-1.98705 -5.75407,-1.93858 -2.53998,0.0507 -4.96101,0.88337 -7.25647,2.49372 l 0,26.89566 -5.34565,0 0,-27.56095 c 3.07662,-2.24038 5.9118,-3.70534 8.49805,-4.39485 2.43865,-0.63665 4.59312,-0.95388 6.4502,-0.95388 1.2711,0 2.46068,0.12337 3.58638,0.3701 2.10601,0.48905 3.80888,1.38785 5.12624,2.71181 1.47156,1.46716 2.20514,3.2207 2.20514,5.27824 l 0,24.54953"
         style="fill:#3e6da1;fill-opacity:1;fill-rule:nonzero;stroke:none"
         id="path30"
         inkscape:connector-curvature="0" />
      <g
         inkscape:export-ydpi="152.24001"
         inkscape:export-xdpi="152.24001"
         inkscape:export-filename="/home/humitos/Dropbox/argenpython/grafica/url.png"
         transform="matrix(0.2202937,0,0,-0.2202937,235.98501,882.25328)"
         id="g32">
        <g
           id="g34"
           clip-path="url(#clipPath36)">
          <path
             d="m 566.074,2022.59 c 23.516,0 42.61,-19.09 42.61,-42.65 0,-23.51 -19.094,-42.57 -42.61,-42.57 -23.562,0 -42.59,19.06 -42.59,42.57 0,23.56 19.028,42.65 42.59,42.65 z m 123.067,68.69 c -38.887,-0.17 -76.211,-3.39 -108.907,-9.09 -96.242,-16.73 -113.632,-51.78 -113.632,-116.33 l 0,-85.23 227.429,0 0,-28.48 -312.769,0 c -66.117,0 -123.891,-39.13 -141.992,-113.46 -7.454,-30.4 -12.415,-56.68 -14.668,-82 l 102,0 c 0.996,47.55 40.117,85.86 88.234,85.86 48.113,0 87.359,-38.31 88.348,-85.86 l 365.039,0 c 31.933,20.18 53.015,55.83 53.015,96.19 l 0,212.98 c 0,60.64 -51.941,106.23 -113.672,116.33 -39.07,6.38 -79.531,9.26 -118.425,9.09 l 0,0"
             style="fill:url(#linearGradient3120);fill-opacity:1;fill-rule:nonzero;stroke:none"
             id="path46"
             inkscape:connector-curvature="0" />
        </g>
      </g>
      <g
         inkscape:export-ydpi="152.24001"
         inkscape:export-xdpi="152.24001"
         inkscape:export-filename="/home/humitos/Dropbox/argenpython/grafica/url.png"
         transform="matrix(0.2202937,0,0,-0.2202937,235.98501,882.25328)"
         id="g48">
        <g
           id="g50"
           clip-path="url(#clipPath52)">
          <path
             d="m 949.797,1852.15 0,-99.27 c 0,-36.73 -15.219,-70.69 -39.238,-96.19 l 42.117,0 c 1.008,48.15 40.625,86.97 89.364,86.97 48.72,0 88.33,-38.82 89.33,-86.97 l 32.47,0 c -2.68,25.52 -7.7,52.52 -15.17,82 -16.34,64.71 -47.47,113.46 -113.65,113.46 l -85.223,0 0,0"
             style="fill:url(#linearGradient3122);fill-opacity:1;fill-rule:nonzero;stroke:none"
             id="path62"
             inkscape:connector-curvature="0" />
        </g>
      </g>
      <path
         inkscape:export-ydpi="152.24001"
         inkscape:export-xdpi="152.24001"
         inkscape:export-filename="/home/humitos/Dropbox/argenpython/grafica/url.png"
         d="m 341.67003,517.69144 c 0.0112,7.64199 -6.22418,13.84105 -13.91727,13.84766 -7.69464,0.009 -13.94217,-6.17703 -13.94636,-13.81902 0,-0.007 0,-0.0198 0,-0.0286 -0.0104,-7.63979 6.22418,-13.84105 13.91463,-13.84766 7.69464,-0.009 13.94041,6.17483 13.949,13.81682 0,0.011 0,0.022 0,0.0308"
         style="fill:#4275ae;fill-opacity:1;fill-rule:nonzero;stroke:none"
         id="path64"
         inkscape:connector-curvature="0" />
      <path
         inkscape:export-ydpi="152.24001"
         inkscape:export-xdpi="152.24001"
         inkscape:export-filename="/home/humitos/Dropbox/argenpython/grafica/url.png"
         d="m 479.47784,517.69144 c 0.009,7.64199 -6.21889,13.84105 -13.91595,13.84766 -7.69927,0.009 -13.936,-6.17703 -13.94988,-13.81902 0,-0.007 0,-0.0198 0,-0.0286 -0.006,-7.63979 6.22418,-13.84105 13.91904,-13.84766 7.69485,-0.009 13.94238,6.17483 13.94679,13.81682 0,0.011 0,0.022 0,0.0308"
         style="fill:#fbc532;fill-opacity:1;fill-rule:nonzero;stroke:none"
         id="path66"
         inkscape:connector-curvature="0" />
      <path
         inkscape:export-ydpi="152.24001"
         inkscape:export-xdpi="152.24001"
         inkscape:export-filename="/home/humitos/Dropbox/argenpython/grafica/url.png"
         d="m 304.04541,396.68191 c -0.11521,4.505 -2.96626,7.41288 -7.25427,7.41288 -3.56413,0 -5.45293,-1.49579 -5.45293,-4.32216 0,-3.13258 2.9559,-4.78699 8.54321,-4.78699 l 4.16399,0 0,1.69627 z m 0.48443,9.89118 3.5584,0 c -0.20928,-1.33938 -0.33132,-2.79552 -0.33132,-4.02036 l 0,-10.3538 c 0,-6.94586 -3.06341,-10.04319 -9.93745,-10.04319 -3.67604,0 -7.08377,1.29312 -9.3572,3.55554 l 2.31639,2.41222 c 1.83725,-1.63238 4.43187,-2.56643 7.14413,-2.56643 3.94546,0 6.12262,1.93859 6.12262,5.45888 l 0,0.87237 -1.69692,0 c -6.99609,0 -15.0291,0.94285 -15.0291,8.29626 0,4.83985 4.42306,7.00754 8.80139,7.00754 3.30199,0 6.0702,-1.47597 7.79818,-4.15694 l 0.0474,-0.0683 0.33551,0 0,0.152 c 0,0.96268 0,2.39679 0.22801,3.4542"
         style="fill:#55585a;fill-opacity:1;fill-rule:nonzero;stroke:none"
         id="path68"
         inkscape:connector-curvature="0" />
      <path
         inkscape:export-ydpi="152.24001"
         inkscape:export-xdpi="152.24001"
         inkscape:export-filename="/home/humitos/Dropbox/argenpython/grafica/url.png"
         d="m 324.67481,385.86549 c 0.68996,0 1.40261,0.0925 2.02208,0.26655 l 0.23681,-3.76482 c -0.43463,-0.14539 -0.91488,-0.21148 -1.48874,-0.21148 -4.03424,0 -6.867,2.25581 -7.89114,4.49179 l -0.0385,0.0903 -0.35291,0 0,-0.152 c 0,-0.6741 -0.0258,-1.35701 -0.0515,-2.01569 -0.0216,-0.59259 -0.0474,-1.20501 -0.0518,-1.7976 l -3.50223,0 c 0.004,0.68732 0.043,1.44072 0.0903,2.23378 0.0533,0.99793 0.11455,2.13024 0.11455,3.32864 l 0,18.23811 3.71041,0 0,-11.59185 c 0,-5.96335 2.48866,-9.11575 7.20272,-9.11575"
         style="fill:#55585a;fill-opacity:1;fill-rule:nonzero;stroke:none"
         id="path70"
         inkscape:connector-curvature="0" />
      <path
         inkscape:export-ydpi="152.24001"
         inkscape:export-xdpi="152.24001"
         inkscape:export-filename="/home/humitos/Dropbox/argenpython/grafica/url.png"
         d="m 360.79351,392.48972 c 0.54214,-4.2759 3.61414,-6.93265 8.02177,-6.93265 4.41006,0 7.25251,2.66336 7.41333,6.94586 l 0.003,0.15862 -15.46198,0 0.0242,-0.17183 z m 15.71641,7.70147 c -1.99806,2.48271 -4.379,3.59519 -7.69464,3.59519 -4.23977,0 -7.69045,-3.38151 -8.02177,-7.86669 l -0.0156,-0.16302 19.46757,0 0,-1.13451 c 0,-7.69045 -4.31798,-12.46642 -11.27265,-12.46642 -7.07187,0 -12.19788,5.26282 -12.19788,12.51709 0,7.37103 4.94956,12.51929 12.04037,12.51929 4.62529,0 7.86933,-1.48698 10.49391,-4.81782 l -2.79927,-2.18311"
         style="fill:#55585a;fill-opacity:1;fill-rule:nonzero;stroke:none"
         id="path72"
         inkscape:connector-curvature="0" />
      <path
         inkscape:export-ydpi="152.24001"
         inkscape:export-xdpi="152.24001"
         inkscape:export-filename="/home/humitos/Dropbox/argenpython/grafica/url.png"
         d="m 397.18228,385.55707 c 3.65137,0 5.66067,2.37697 5.66067,6.69253 l 0,14.32349 3.70886,0 0,-14.73324 c 0,-6.24753 -3.19954,-9.68411 -9.01067,-9.68411 -4.03314,0 -6.867,2.25581 -7.89004,4.49179 l -0.037,0.0903 -0.35291,0 0,-0.152 c 0,-0.6741 -0.03,-1.35701 -0.056,-2.01569 -0.0214,-0.59259 -0.0456,-1.20501 -0.0471,-1.7976 l -3.50509,0 c 0.005,0.68732 0.0456,1.44072 0.0888,2.23378 0.0542,0.99793 0.11609,2.13024 0.11609,3.32864 l 0,18.23811 3.70887,0 0,-11.59185 c 0,-6.0779 2.70631,-9.42417 7.61555,-9.42417"
         style="fill:#55585a;fill-opacity:1;fill-rule:nonzero;stroke:none"
         id="path74"
         inkscape:connector-curvature="0" />
      <path
         inkscape:export-ydpi="152.24001"
         inkscape:export-xdpi="152.24001"
         inkscape:export-filename="/home/humitos/Dropbox/argenpython/grafica/url.png"
         d="m 425.14769,403.97363 c -1.03098,0.32383 -4.82157,0.42957 -5.95586,-0.48024 -1.13914,-0.91863 -1.13914,-3.32864 -1.13914,-5.42143 l 0,-12.05447 7.095,0 0,-3.39693 -7.095,0 0,-6.85113 -4.0197,0 0,6.85113 -3.26564,0 0,3.39693 3.26564,0 0,13.23745 c 0,3.7494 0.52165,6.42376 3.19954,7.52743 0.86488,0.36128 5.01851,0.86576 7.91516,0.30401 l 0,-3.11275"
         style="fill:#55585a;fill-opacity:1;fill-rule:nonzero;stroke:none"
         id="path76"
         inkscape:connector-curvature="0" />
      <path
         inkscape:export-ydpi="152.24001"
         inkscape:export-xdpi="152.24001"
         inkscape:export-filename="/home/humitos/Dropbox/argenpython/grafica/url.png"
         d="m 430.60943,406.57309 3.70884,0 0,-23.80207 -3.70884,0 0,23.80207 z"
         style="fill:#55585a;fill-opacity:1;fill-rule:nonzero;stroke:none"
         id="path80"
         inkscape:connector-curvature="0" />
      <path
         inkscape:export-ydpi="152.24001"
         inkscape:export-xdpi="152.24001"
         inkscape:export-filename="/home/humitos/Dropbox/argenpython/grafica/url.png"
         d="m 430.60943,377.46569 3.70884,0 0,-4.16406 -3.70884,0 0,4.16406 z"
         style="fill:#55585a;fill-opacity:1;fill-rule:nonzero;stroke:none"
         id="path82"
         inkscape:connector-curvature="0" />
      <path
         inkscape:export-ydpi="152.24001"
         inkscape:export-xdpi="152.24001"
         inkscape:export-filename="/home/humitos/Dropbox/argenpython/grafica/url.png"
         d="m 452.11384,385.55707 c 3.6485,0 5.66066,2.37697 5.66066,6.69253 l 0,14.32349 3.71195,0 0,-14.73324 c 0,-6.24753 -3.20086,-9.68411 -9.01133,-9.68411 -4.03314,0 -6.86678,2.25581 -7.89092,4.49179 l -0.0405,0.0903 -0.35269,0 0,-0.152 c 0,-0.6741 -0.024,-1.35701 -0.05,-2.01569 -0.0231,-0.59259 -0.0471,-1.20501 -0.056,-1.7976 l -3.49958,0 c 0.003,0.68732 0.0447,1.44072 0.0877,2.23378 0.056,0.99793 0.11632,2.13024 0.11632,3.32864 l 0,18.23811 3.71305,0 0,-11.59185 c 0,-6.0779 2.70212,-9.42417 7.61137,-9.42417"
         style="fill:#55585a;fill-opacity:1;fill-rule:nonzero;stroke:none"
         id="path84"
         inkscape:connector-curvature="0" />
      <path
         inkscape:export-ydpi="152.24001"
         inkscape:export-xdpi="152.24001"
         inkscape:export-filename="/home/humitos/Dropbox/argenpython/grafica/url.png"
         d="m 483.48939,396.68191 c -0.11676,4.505 -2.96516,7.41288 -7.25648,7.41288 -3.56875,0 -5.45227,-1.49579 -5.45227,-4.32216 0,-3.13258 2.95635,-4.78699 8.54079,-4.78699 l 4.16796,0 0,1.69627 z m 0.48024,9.89118 3.56435,0 c -0.21368,-1.33938 -0.33264,-2.79552 -0.33264,-4.02036 l 0,-10.3538 c 0,-6.94586 -3.06429,-10.04319 -9.93966,-10.04319 -3.6767,0 -7.07803,1.29312 -9.35807,3.55554 l 2.31969,2.41222 c 1.83284,-1.63238 4.43011,-2.56643 7.14192,-2.56643 3.94546,0 6.12417,1.93859 6.12417,5.45888 l 0,0.87237 -1.69626,0 c -7.00094,0 -15.03285,0.94285 -15.03285,8.29626 0,4.83985 4.4257,7.00754 8.80294,7.00754 3.3022,0 6.07129,-1.47597 7.7984,-4.15694 l 0.0463,-0.0683 0.33705,0 0,0.152 c 0,0.96268 0,2.39679 0.2247,3.4542"
         style="fill:#55585a;fill-opacity:1;fill-rule:nonzero;stroke:none"
         id="path86"
         inkscape:connector-curvature="0" />
      <path
         inkscape:export-ydpi="152.24001"
         inkscape:export-xdpi="152.24001"
         inkscape:export-filename="/home/humitos/Dropbox/argenpython/grafica/url.png"
         d="m 340.66747,403.78858 c -4.51756,0 -7.55365,-3.54012 -7.55365,-8.80514 0,-5.70781 2.82505,-9.11575 7.55365,-9.11575 4.72861,0 7.33336,3.20087 7.33336,9.01221 0,4.06442 -1.27352,8.90868 -7.33336,8.90868 z m 11.04487,2.16549 0,-22.8731 -3.71151,0 0,3.51589 -0.36745,0 -0.03,-0.11015 c -0.33815,-1.11909 -2.24611,-4.02256 -6.93595,-4.02256 -7.35318,0 -11.5696,4.56228 -11.5696,12.51929 0,7.41729 4.53915,12.21088 11.5696,12.21088 3.41037,0 5.94463,-1.22483 6.94014,-3.36168 l 0.0432,-0.0859 0.35004,0 0,2.20734 c 0,6.11755 -2.85434,8.84699 -9.26247,8.84699 -1.77799,0 -3.38878,-0.35026 -4.91365,-1.07723 l -0.75561,3.6789 c 1.69957,0.54192 3.554,0.80628 5.66926,0.80628 8.72914,0 12.97398,-4.00935 12.97398,-12.25494"
         style="fill:#55585a;fill-opacity:1;fill-rule:nonzero;stroke:none"
         id="path88"
         inkscape:connector-curvature="0" />
      <path
         inkscape:export-ydpi="152.24001"
         inkscape:export-xdpi="152.24001"
         inkscape:export-filename="/home/humitos/Dropbox/argenpython/grafica/url.png"
         d="m 297.8893,551.25979 c 0.40182,-3.20968 2.71072,-5.20113 6.01512,-5.20113 3.30441,0 5.43575,1.99586 5.55889,5.20994 l 0.006,0.1498 -11.60243,0 0.0225,-0.15861 z m 11.76082,5.78932 c -1.49579,1.84386 -3.27268,2.66776 -5.7457,2.66776 -3.185,0 -5.76817,-2.53338 -6.01512,-5.89506 l -0.009,-0.15421 14.51868,0 0,-0.81729 c 0,-5.71882 -3.20968,-9.27216 -8.37887,-9.27216 -5.25775,0 -9.075,3.91903 -9.075,9.31402 0,5.4787 3.68287,9.30521 8.9589,9.30521 3.42909,0 5.83778,-1.09927 7.78496,-3.55995 l -2.03926,-1.58832"
         style="fill:#55585a;fill-opacity:1;fill-rule:nonzero;stroke:none"
         id="path90"
         inkscape:connector-curvature="0" />
      <path
         inkscape:export-ydpi="152.24001"
         inkscape:export-xdpi="152.24001"
         inkscape:export-filename="/home/humitos/Dropbox/argenpython/grafica/url.png"
         d="m 325.16276,546.05866 c 2.74156,0 4.25079,1.78438 4.25079,5.0249 l 0,10.6534 2.70653,0 0,-10.96181 c 0,-4.63939 -2.37521,-7.197 -6.68812,-7.197 -3.0015,0 -5.10288,1.67644 -5.86179,3.33525 l -0.037,0.0859 -0.3115,0 0,-0.14319 c 0,-0.49786 -0.0225,-1.01115 -0.037,-1.5024 -0.0216,-0.43178 -0.0344,-0.87897 -0.0414,-1.31295 l -2.55321,0 c 0.004,0.50447 0.0346,1.05521 0.0663,1.63678 0.037,0.74459 0.0888,1.58612 0.0888,2.48712 l 0,13.57229 2.70631,0 0,-8.61789 c 0,-4.55347 2.02648,-7.06041 5.71133,-7.06041"
         style="fill:#55585a;fill-opacity:1;fill-rule:nonzero;stroke:none"
         id="path92"
         inkscape:connector-curvature="0" />
      <path
         inkscape:export-ydpi="152"
         inkscape:export-xdpi="152"
         inkscape:export-filename="/home/humitos/Dropbox/argenpython/grafica/url.png"
         d="m 258.37588,544.52101 c 0,0 115.72028,-45.25934 255.98106,-0.38772 0,0 -128.18758,-33.26655 -255.98106,0.38772"
         style="fill:#4275ae;fill-opacity:1;fill-rule:nonzero;stroke:none"
         id="path94"
         inkscape:connector-curvature="0" />
      <path
         inkscape:export-ydpi="152.24001"
         inkscape:export-xdpi="152.24001"
         inkscape:export-filename="/home/humitos/Dropbox/argenpython/grafica/url.png"
         d="m 426.72245,614.27984 1.4867,0 -0.34525,1.78968 -1.4867,0 0.34525,-1.78968"
         style="font-size:14.43015194px;font-style:italic;font-variant:normal;font-weight:normal;font-stretch:normal;text-align:start;line-height:125%;letter-spacing:0px;word-spacing:0px;writing-mode:lr-tb;text-anchor:start;fill:#55585a;fill-opacity:1;stroke:none;font-family:Sans;-inkscape-font-specification:Sans Italic"
         id="path3058"
         inkscape:connector-curvature="0" />
      <path
         inkscape:export-ydpi="152.24001"
         inkscape:export-xdpi="152.24001"
         inkscape:export-filename="/home/humitos/Dropbox/argenpython/grafica/url.png"
         d="m 437.86918,608.48101 -0.2607,1.28236 c -0.31003,-0.22546 -0.64119,-0.39456 -0.99348,-0.50731 -0.34761,-0.11273 -0.7093,-0.16909 -1.08508,-0.1691 -0.41337,10e-6 -0.80795,0.0728 -1.18373,0.21843 -0.37109,0.14562 -0.68346,0.3523 -0.93711,0.62004 -0.40397,0.40867 -0.71634,0.8878 -0.93712,1.43738 -0.22077,0.54959 -0.33116,1.11796 -0.33116,1.70512 0,0.7093 0.17615,1.23775 0.52845,1.58535 0.35699,0.3476 0.89718,0.5214 1.62057,0.5214 0.357,0 0.73513,-0.054 1.13441,-0.16206 0.40396,-0.10803 0.82437,-0.27009 1.26123,-0.48617 l -0.24661,1.28237 c -0.37579,0.15501 -0.76332,0.27009 -1.16259,0.34525 -0.39458,0.0798 -0.8009,0.11978 -1.21895,0.11978 -1.04751,0 -1.8531,-0.2607 -2.41677,-0.7821 -0.56368,-0.5261 -0.84552,-1.27532 -0.84552,-2.24767 0,-0.81733 0.14562,-1.56889 0.43685,-2.25471 0.29593,-0.6905 0.73278,-1.31054 1.31055,-1.86013 0.39458,-0.37578 0.85726,-0.65997 1.38806,-0.85257 0.53079,-0.19258 1.11091,-0.28887 1.74036,-0.28888 0.36638,10e-6 0.73042,0.0423 1.09212,0.12683 0.36169,0.0799 0.73043,0.20199 1.10622,0.36639"
         style="font-size:14.43015194px;font-style:italic;font-variant:normal;font-weight:normal;font-stretch:normal;text-align:start;line-height:125%;letter-spacing:0px;word-spacing:0px;writing-mode:lr-tb;text-anchor:start;fill:#55585a;fill-opacity:1;stroke:none;font-family:Sans;-inkscape-font-specification:Sans Italic"
         id="path3060"
         inkscape:connector-curvature="0" />
      <path
         inkscape:export-ydpi="152.24001"
         inkscape:export-xdpi="152.24001"
         inkscape:export-filename="/home/humitos/Dropbox/argenpython/grafica/url.png"
         d="m 441.74446,616.27385 c -0.92537,0 -1.65815,-0.28419 -2.19834,-0.85256 -0.53549,-0.57307 -0.80324,-1.35283 -0.80324,-2.33926 0,-0.57307 0.0916,-1.15554 0.27479,-1.7474 0.18789,-0.59656 0.42981,-1.09682 0.72574,-1.5008 0.46503,-0.62943 0.98408,-1.09446 1.55716,-1.3951 0.57307,-0.30062 1.22129,-0.45093 1.94469,-0.45094 0.89718,10e-6 1.62056,0.2795 2.17016,0.83847 0.55427,0.55899 0.83141,1.28942 0.83142,2.1913 -1e-5,0.62474 -0.0916,1.24714 -0.27479,1.86718 -0.18321,0.62005 -0.42277,1.1344 -0.71869,1.54307 -0.46035,0.62944 -0.97705,1.09447 -1.55012,1.3951 -0.57307,0.30063 -1.226,0.45094 -1.95878,0.45094 m -1.6558,-3.2341 c 0,0.714 0.14796,1.24949 0.4439,1.60648 0.30062,0.3523 0.75391,0.52845 1.35987,0.52845 0.869,0 1.58769,-0.37813 2.15607,-1.1344 0.57306,-0.76096 0.8596,-1.72391 0.85961,-2.88885 -1e-5,-0.6811 -0.15267,-1.19546 -0.45799,-1.54307 -0.30533,-0.34759 -0.75393,-0.52139 -1.34578,-0.5214 -0.48853,10e-6 -0.92303,0.11509 -1.30351,0.34525 -0.38048,0.22548 -0.72104,0.57073 -1.02166,1.03576 -0.22078,0.34761 -0.39223,0.74453 -0.51436,1.19077 -0.11744,0.44625 -0.17615,0.90659 -0.17615,1.38101"
         style="font-size:14.43015194px;font-style:italic;font-variant:normal;font-weight:normal;font-stretch:normal;text-align:start;line-height:125%;letter-spacing:0px;word-spacing:0px;writing-mode:lr-tb;text-anchor:start;fill:#55585a;fill-opacity:1;stroke:none;font-family:Sans;-inkscape-font-specification:Sans Italic"
         id="path3062"
         inkscape:connector-curvature="0" />
      <path
         inkscape:export-ydpi="152.24001"
         inkscape:export-xdpi="152.24001"
         inkscape:export-filename="/home/humitos/Dropbox/argenpython/grafica/url.png"
         d="m 459.85966,611.30644 -0.92302,4.76308 -1.29646,0 0.90893,-4.7208 c 0.0376,-0.20198 0.0658,-0.37578 0.0846,-0.5214 0.0188,-0.14562 0.0282,-0.27009 0.0282,-0.37344 -10e-6,-0.42275 -0.11744,-0.75157 -0.3523,-0.98644 -0.23487,-0.23486 -0.56368,-0.35229 -0.98643,-0.3523 -0.62945,10e-6 -1.19078,0.23723 -1.68399,0.71165 -0.49323,0.46973 -0.81264,1.08273 -0.95825,1.839 l -0.86666,4.40373 -1.29645,0 0.92302,-4.7208 c 0.0376,-0.1738 0.0657,-0.33351 0.0845,-0.47913 0.0188,-0.15031 0.0282,-0.28418 0.0282,-0.40162 0,-0.42745 -0.11744,-0.75861 -0.3523,-0.99348 -0.23487,-0.23956 -0.55898,-0.35934 -0.97234,-0.35935 -0.63884,10e-6 -1.20487,0.23723 -1.69808,0.71165 -0.49322,0.46973 -0.81264,1.08273 -0.95825,1.839 l -0.86666,4.40373 -1.29646,0 1.54307,-7.89149 1.29646,0 -0.24661,1.226 c 0.3523,-0.46033 0.76331,-0.81028 1.23305,-1.04985 0.47442,-0.24425 0.98173,-0.36638 1.52193,-0.36639 0.57306,10e-6 1.0428,0.15032 1.40919,0.45094 0.37108,0.30064 0.59421,0.7187 0.66937,1.25418 0.39457,-0.55427 0.85021,-0.97703 1.36692,-1.26827 0.52139,-0.29123 1.07098,-0.43684 1.64876,-0.43685 0.6764,10e-6 1.1978,0.19494 1.5642,0.58481 0.37108,0.38989 0.55662,0.94182 0.55663,1.65581 -10e-6,0.15501 -0.009,0.32647 -0.0282,0.51435 -0.0188,0.1832 -0.047,0.3711 -0.0845,0.56368"
         style="font-size:14.43015194px;font-style:italic;font-variant:normal;font-weight:normal;font-stretch:normal;text-align:start;line-height:125%;letter-spacing:0px;word-spacing:0px;writing-mode:lr-tb;text-anchor:start;fill:#55585a;fill-opacity:1;stroke:none;font-family:Sans;-inkscape-font-specification:Sans Italic"
         id="path3064"
         inkscape:connector-curvature="0" />
      <path
         inkscape:export-ydpi="152.24001"
         inkscape:export-xdpi="152.24001"
         inkscape:export-filename="/home/humitos/Dropbox/argenpython/grafica/url.png"
         d="m 462.1496,614.27984 1.4867,0 -0.34525,1.78968 -1.4867,0 0.34525,-1.78968"
         style="font-size:14.43015194px;font-style:italic;font-variant:normal;font-weight:normal;font-stretch:normal;text-align:start;line-height:125%;letter-spacing:0px;word-spacing:0px;writing-mode:lr-tb;text-anchor:start;fill:#55585a;fill-opacity:1;stroke:none;font-family:Sans;-inkscape-font-specification:Sans Italic"
         id="path3066"
         inkscape:connector-curvature="0" />
      <path
         inkscape:export-ydpi="152.24001"
         inkscape:export-xdpi="152.24001"
         inkscape:export-filename="/home/humitos/Dropbox/argenpython/grafica/url.png"
         d="m 473.31042,611.56714 -0.88074,4.50238 -1.29646,0 0.23956,-1.19782 c -0.38049,0.46974 -0.81499,0.82203 -1.3035,1.0569 -0.48383,0.23017 -1.02402,0.34525 -1.62058,0.34525 -0.67172,0 -1.22365,-0.20433 -1.6558,-0.613 -0.42746,-0.41336 -0.64119,-0.94181 -0.64119,-1.58534 0,-0.92067 0.36639,-1.64876 1.09918,-2.18425 0.73747,-0.53549 1.75209,-0.80324 3.04386,-0.80324 l 1.80377,0 0.0704,-0.34526 c 0.009,-0.0376 0.0164,-0.0775 0.0211,-0.11978 0.005,-0.047 0.007,-0.11743 0.007,-0.21138 -1e-5,-0.41805 -0.17146,-0.74217 -0.51436,-0.97234 -0.33821,-0.23486 -0.81499,-0.35229 -1.43033,-0.3523 -0.42276,10e-6 -0.85726,0.054 -1.3035,0.16206 -0.44156,0.10804 -0.89719,0.2701 -1.36692,0.48617 l 0.22547,-1.19782 c 0.48852,-0.18318 0.96529,-0.31941 1.43033,-0.40866 0.46973,-0.0939 0.92302,-0.14091 1.35987,-0.14092 0.93007,10e-6 1.63701,0.20199 2.12084,0.60595 0.48851,0.40398 0.73277,0.99114 0.73278,1.7615 -10e-6,0.15501 -0.0118,0.33821 -0.0352,0.54958 -0.0235,0.20669 -0.0587,0.42746 -0.10569,0.66232 m -1.40215,0.5355 -1.29646,0 c -1.06159,0 -1.84839,0.14327 -2.3604,0.4298 -0.50731,0.28184 -0.76096,0.72104 -0.76096,1.3176 0,0.41336 0.12917,0.73748 0.38753,0.97234 0.26304,0.23487 0.62474,0.3523 1.08508,0.3523 0.70459,0 1.31994,-0.2513 1.84604,-0.75392 0.5261,-0.50731 0.8737,-1.18372 1.04281,-2.02924 l 0.0564,-0.28888"
         style="font-size:14.43015194px;font-style:italic;font-variant:normal;font-weight:normal;font-stretch:normal;text-align:start;line-height:125%;letter-spacing:0px;word-spacing:0px;writing-mode:lr-tb;text-anchor:start;fill:#55585a;fill-opacity:1;stroke:none;font-family:Sans;-inkscape-font-specification:Sans Italic"
         id="path3068"
         inkscape:connector-curvature="0" />
      <path
         inkscape:export-ydpi="152.24001"
         inkscape:export-xdpi="152.24001"
         inkscape:export-filename="/home/humitos/Dropbox/argenpython/grafica/url.png"
         d="m 480.84256,609.37585 c -0.13153,-0.0705 -0.28184,-0.12448 -0.45094,-0.16206 -0.16911,-0.0376 -0.34995,-0.0564 -0.54254,-0.0564 -0.69051,1e-5 -1.29411,0.26306 -1.81081,0.78915 -0.51671,0.52141 -0.85961,1.22131 -1.02871,2.0997 l -0.7962,4.02325 -1.29646,0 1.54307,-7.89149 1.29646,0 -0.24661,1.226 c 0.3429,-0.45563 0.75157,-0.80558 1.226,-1.04985 0.47912,-0.24425 0.98878,-0.36638 1.52897,-0.36639 0.14092,10e-6 0.27949,0.009 0.41572,0.0282 0.13621,0.0141 0.27244,0.0399 0.40866,0.0775 l -0.24661,1.28237"
         style="font-size:14.43015194px;font-style:italic;font-variant:normal;font-weight:normal;font-stretch:normal;text-align:start;line-height:125%;letter-spacing:0px;word-spacing:0px;writing-mode:lr-tb;text-anchor:start;fill:#55585a;fill-opacity:1;stroke:none;font-family:Sans;-inkscape-font-specification:Sans Italic"
         id="path3070"
         inkscape:connector-curvature="0" />
    </g>
  </g>
</svg>
